<?xml version="1.0" encoding="UTF-8" standalone="no"?><!DOCTYPE svg PUBLIC "-//W3C//DTD SVG 1.1//EN" "http://www.w3.org/Graphics/SVG/1.1/DTD/svg11.dtd"><svg width="100%" height="100%" viewBox="0 0 5100 3300" version="1.1" xmlns="http://www.w3.org/2000/svg" xmlns:xlink="http://www.w3.org/1999/xlink" xml:space="preserve" xmlns:serif="http://www.serif.com/" style="fill-rule:evenodd;clip-rule:evenodd;stroke-linejoin:round;stroke-miterlimit:2;"><path id="Color-Fill-1" serif:id="Color Fill 1" d="M2200,75l12.5,-0c123.097,85.559 230.114,217.253 333.333,325c213.868,212.479 427.799,425.021 641.667,637.5c68.265,68.254 293.586,225.858 245.833,375c-89.972,281.003 -518.009,-172.406 -595.833,195.833c-25.098,118.757 55.665,193.395 87.5,262.5c33.805,73.382 59.673,158.22 75,245.834c41.484,237.14 -193.493,286.659 -145.834,512.5c26.773,126.865 341.478,356.275 191.667,504.166c-98.337,0.156 -431.416,-243.941 -525,-300c-461.065,-277.75 -922.268,-555.583 -1383.33,-833.333l-0,-20.834c347.187,-365.241 694.479,-730.591 1041.67,-1095.83c1.388,-66.66 2.777,-133.34 4.166,-200c-0.002,-125.844 -20.944,-523.943 16.667,-608.333Zm1462.5,1466.67c73.102,8.072 349.569,328.448 400,395.833l-0,16.667c-184.704,93.046 -369.463,186.12 -554.167,279.166c-47.741,27.86 -151.622,74.337 -212.5,25c-45.465,-36.846 -18.798,-99.181 -33.333,-170.833c-76.283,-376.044 30.857,-252.004 245.833,-387.5c62.27,-39.248 97.477,-111.988 154.167,-158.333Zm-620.833,50c32.335,0.604 50.603,9.104 70.833,20.833c40.724,78.379 16.619,172.274 -95.833,141.667c-58.063,-39.116 -48.117,-97.901 -12.5,-150c12.498,-4.167 25.001,-8.334 37.5,-12.5Z" style="fill:#e3253b;"/><path id="Color-Fill-11" serif:id="Color Fill 1" d="M2200,75l12.5,-0c123.097,85.559 230.114,217.253 333.333,325c213.868,212.479 427.799,425.021 641.667,637.5c68.265,68.254 293.586,225.858 245.833,375c-89.972,281.003 -518.009,-172.406 -595.833,195.833c-25.098,118.757 55.665,193.395 87.5,262.5c33.805,73.382 59.673,158.22 75,245.834c41.484,237.14 -193.493,286.659 -145.834,512.5c26.773,126.865 341.478,356.275 191.667,504.166c-98.337,0.156 -431.416,-243.941 -525,-300c-461.065,-277.75 -922.268,-555.583 -1383.33,-833.333l-0,-20.834c347.187,-365.241 694.479,-730.591 1041.67,-1095.83c1.388,-66.66 2.777,-133.34 4.166,-200c-0.002,-125.844 -20.944,-523.943 16.667,-608.333Zm1462.5,1466.67c73.102,8.072 349.569,328.448 400,395.833l-0,16.667c-184.704,93.046 -369.463,186.12 -554.167,279.166c-47.741,27.86 -151.622,74.337 -212.5,25c-45.465,-36.846 -18.798,-99.181 -33.333,-170.833c-76.283,-376.044 30.857,-252.004 245.833,-387.5c62.27,-39.248 97.477,-111.988 154.167,-158.333Zm-620.833,50c32.335,0.604 50.603,9.104 70.833,20.833c40.724,78.379 16.619,172.274 -95.833,141.667c-58.063,-39.116 -48.117,-97.901 -12.5,-150c12.498,-4.167 25.001,-8.334 37.5,-12.5Z" style="fill:#e3253b;"/></svg>