<?xml version="1.0" standalone="no"?>
<!DOCTYPE svg PUBLIC "-//W3C//DTD SVG 20010904//EN"
 "http://www.w3.org/TR/2001/REC-SVG-20010904/DTD/svg10.dtd">
<svg version="1.0" xmlns="http://www.w3.org/2000/svg"
 width="700.000000pt" height="700.000000pt" viewBox="0 0 700.000000 700.000000"
 preserveAspectRatio="xMidYMid meet">
<g transform="translate(0.000000,700.000000) scale(0.100000,-0.100000)"
fill="#000000" stroke="none">
<path d="M2586 6992 c-9 -15 -27 -105 -31 -157 -2 -27 -7 -79 -10 -115 -3 -36
-5 -204 -4 -375 1 -170 2 -509 3 -751 l1 -442 -62 -63 c-33 -35 -78 -82 -100
-105 -21 -23 -108 -114 -193 -204 -85 -90 -171 -180 -190 -200 -78 -82 -391
-410 -471 -495 -47 -49 -105 -110 -128 -135 -43 -45 -302 -318 -376 -395 -22
-23 -78 -82 -124 -131 -47 -49 -160 -168 -251 -264 -92 -96 -184 -193 -204
-215 -21 -22 -72 -76 -114 -120 -175 -183 -182 -192 -174 -215 4 -12 46 -44
95 -73 72 -43 231 -139 451 -272 18 -11 96 -57 172 -103 76 -46 201 -121 277
-168 76 -46 142 -84 148 -84 5 0 9 -4 9 -9 0 -5 6 -11 13 -13 9 -2 333 -196
567 -338 147 -90 282 -170 287 -170 4 0 14 -6 22 -14 9 -8 27 -21 41 -28 14
-7 111 -65 215 -128 105 -63 198 -119 207 -125 33 -19 394 -236 553 -333 88
-53 259 -163 380 -243 295 -195 343 -226 476 -307 122 -73 325 -175 374 -187
82 -20 82 -20 119 37 110 167 56 333 -233 713 -170 222 -231 319 -246 390 -4
17 -8 69 -10 118 -5 143 33 248 152 426 35 51 63 97 63 101 0 4 6 12 13 18 22
18 87 157 106 226 33 120 21 286 -35 486 -8 30 -22 79 -30 108 -34 126 -160
389 -220 462 -20 24 -72 161 -79 209 -14 93 -6 172 27 266 28 82 43 110 85
155 115 128 254 138 619 45 123 -31 154 -38 249 -52 191 -28 309 30 374 185
57 137 17 295 -122 472 -56 71 -213 230 -298 300 -95 78 -1641 1617 -1789
1780 -196 217 -416 428 -529 509 -45 31 -66 38 -75 23z"/>
<path d="M5889 3598 c-25 -24 -68 -72 -98 -108 -151 -185 -264 -265 -481 -340
-126 -43 -205 -75 -237 -93 -122 -70 -137 -237 -58 -632 8 -38 15 -117 15
-175 2 -145 14 -192 57 -235 67 -67 188 -78 324 -31 41 14 234 107 429 205
195 99 502 253 682 343 289 144 327 166 327 187 1 23 -50 89 -213 276 -165
189 -376 407 -496 515 -59 53 -154 118 -181 125 -22 5 -34 -1 -70 -37z"/>
<path d="M4489 3520 c-51 -15 -71 -33 -97 -88 -37 -81 -36 -156 3 -212 28 -40
53 -60 85 -67 178 -42 279 81 222 267 -16 50 -22 57 -65 79 -52 25 -105 33
-148 21z"/>
</g>
</svg>
